<svg width="539" height="121" viewBox="0 0 539 121" fill="none" xmlns="http://www.w3.org/2000/svg">
<g filter="url(#filter0_d_43_377)">
<g clip-path="url(#clip0_43_377)">
<rect width="193.721" height="44.2791" transform="translate(0 50.3353) rotate(-13.19)" fill="#5B5B5B"/>
<g clip-path="url(#clip1_43_377)">
<path d="M24.5567 53.5521L41.8458 49.5001C44.4673 48.8858 47.0832 50.5083 47.6976 53.1298L51.5926 69.7496C52.207 72.371 50.5844 74.987 47.963 75.6013L30.6739 79.6533C28.0525 80.2676 25.4365 78.6451 24.8222 76.0236L20.9271 59.4038C20.3127 56.7824 21.9353 54.1664 24.5567 53.5521Z" fill="#001E36"/>
<path d="M30.9642 59.0517C30.6296 59.1301 30.295 59.2085 29.9519 59.3008C29.6086 59.393 29.285 59.4688 28.9865 59.5507C28.6879 59.6324 28.4092 59.6977 28.1441 59.7715C27.89 59.8428 27.7116 59.8846 27.5219 59.929C27.4439 59.9473 27.4209 59.9997 27.4392 60.0779L30.1292 71.5558C30.1527 71.6562 30.2078 71.6905 30.2971 71.6695L32.4611 71.1624C32.5365 71.1328 32.5766 71.0528 32.547 70.9774L31.7079 67.3969C31.9198 67.3472 32.076 67.3106 32.1903 67.2955C32.3043 67.2805 32.4827 67.2387 32.7504 67.1759C33.6652 66.9615 34.4783 66.6651 35.1713 66.2085C35.8337 65.7709 36.3486 65.156 36.6483 64.4267C36.948 63.6977 36.9856 62.8534 36.7607 61.894C36.6431 61.3921 36.4416 60.9334 36.1645 60.5041C35.8755 60.0683 35.4961 59.6997 35.0521 59.4234C34.5313 59.1107 33.9475 58.9179 33.3429 58.8589C32.6633 58.7711 31.8788 58.8373 30.9642 59.0517ZM31.728 61.1904C32.1272 61.1048 32.5304 61.0836 32.9257 61.1454C33.278 61.1923 33.598 61.3527 33.8556 61.5981C34.104 61.8563 34.2738 62.1799 34.345 62.531C34.4599 63.0217 34.4372 63.4272 34.2683 63.7609C34.0881 64.0972 33.8255 64.3825 33.4923 64.5665C33.1108 64.7971 32.6914 64.9658 32.2564 65.0677L31.6651 65.2063C31.5313 65.2377 31.3839 65.2605 31.2251 65.286L30.3467 61.5382C30.4221 61.5086 30.5757 61.4609 30.8016 61.4199C31.0108 61.3589 31.2672 61.2989 31.5573 61.2309C31.614 61.216 31.6711 61.2024 31.728 61.1904ZM41.2165 59.5674C40.4245 59.7531 39.795 60.0299 39.3337 60.4204C38.9064 60.756 38.5772 61.2095 38.4029 61.721C38.2544 62.1913 38.2275 62.6799 38.3399 63.1597C38.4228 63.5565 38.6026 63.9267 38.8632 64.2373C39.1597 64.5635 39.5253 64.8195 39.9332 64.9866C40.5026 65.2072 41.0983 65.3524 41.7053 65.4185C42.3014 65.5023 42.7087 65.5834 42.9213 65.6865C43.1337 65.7898 43.257 65.9138 43.2936 66.07C43.3407 66.2708 43.2624 66.4893 43.1023 66.6091C42.925 66.7565 42.6369 66.883 42.213 66.9823C41.7669 67.0869 41.3075 67.1356 40.8574 67.1235C40.3452 67.1288 39.8353 67.0537 39.3463 66.9012C39.3076 66.8866 39.2715 66.8834 39.2433 66.9136C39.215 66.9436 39.2144 66.9908 39.2222 67.0242L39.6771 68.9651C39.6869 69.057 39.7608 69.122 39.8495 69.1482C40.2508 69.2324 40.6616 69.2628 41.0709 69.2385C41.5964 69.2213 42.1086 69.1482 42.6216 69.028C43.4247 68.8398 44.0655 68.5603 44.5571 68.198C45.012 67.8796 45.3659 67.4319 45.5736 66.9124C45.7631 66.4051 45.7935 65.8521 45.661 65.327C45.5785 64.9262 45.3979 64.5521 45.1353 64.2383C44.8343 63.9086 44.46 63.6669 44.037 63.519C43.4192 63.307 42.7786 63.1688 42.1284 63.1071C41.8332 63.0589 41.5401 62.998 41.2501 62.9246C41.0869 62.8806 40.9295 62.8116 40.8003 62.7123C40.7125 62.6387 40.6445 62.549 40.6209 62.4486C40.5974 62.3482 40.6047 62.2289 40.6394 62.1265C40.6915 61.9967 40.7958 61.8898 40.9329 61.8224C41.1319 61.717 41.3582 61.6285 41.5838 61.5873C42.0077 61.4879 42.4335 61.4471 42.8672 61.4396C43.2649 61.4287 43.6505 61.4679 44.027 61.568C44.0767 61.5798 44.1326 61.5667 44.2277 61.521C44.2422 61.504 44.2524 61.4839 44.2576 61.4622C44.2628 61.4405 44.2627 61.4179 44.2574 61.3962L43.8313 59.5781C43.8208 59.5334 43.7991 59.4915 43.7776 59.4495C43.7448 59.4102 43.6897 59.3759 43.6426 59.3753C43.3055 59.3215 42.9629 59.3108 42.6231 59.3435C42.1494 59.3841 41.6794 59.4591 41.2165 59.5674Z" fill="#31A8FF"/>
</g>
<path d="M65.3082 59.3584L62.8516 59.9341L62.6192 58.9426L65.0758 58.3669C65.5515 58.2554 65.919 58.0893 66.1782 57.8687C66.4373 57.6481 66.6027 57.3873 66.6743 57.0862C66.7501 56.7842 66.7475 56.4606 66.6666 56.1154C66.5926 55.7996 66.4536 55.5191 66.2495 55.2738C66.0497 55.0275 65.7827 54.8547 65.4485 54.7554C65.1134 54.6518 64.7079 54.6558 64.2322 54.7673L62.0598 55.2764L63.9809 63.4734L62.762 63.759L60.6071 54.5643L63.9983 53.7695C64.693 53.6067 65.3084 53.5891 65.8446 53.7166C66.3808 53.844 66.8229 54.0913 67.171 54.4583C67.518 54.8211 67.7552 55.274 67.8825 55.8171C68.0206 56.4065 68.0143 56.9387 67.8636 57.4137C67.7129 57.8888 67.4232 58.292 66.9946 58.6234C66.565 58.9506 66.0028 59.1956 65.3082 59.3584ZM69.6393 51.9145L71.9126 61.6145L70.7443 61.8883L68.471 52.1883L69.6393 51.9145ZM70.7734 58.0042L70.2827 58.0993C70.1773 57.631 70.1457 57.1831 70.1876 56.7558C70.2286 56.3243 70.3367 55.9326 70.5118 55.5806C70.6869 55.2287 70.9241 54.9333 71.2234 54.6944C71.526 54.4502 71.8835 54.2798 72.2961 54.1832C72.6329 54.1042 72.9469 54.0795 73.2381 54.109C73.5282 54.1342 73.7912 54.2236 74.027 54.3771C74.2671 54.5295 74.4746 54.7518 74.6497 55.0439C74.8237 55.3318 74.9635 55.7009 75.0691 56.1514L76.1184 60.6288L74.9438 60.9041L73.8915 56.4141C73.8077 56.0562 73.6879 55.7823 73.5324 55.5922C73.3758 55.398 73.1851 55.2761 72.9604 55.2266C72.7346 55.1729 72.4744 55.1806 72.1797 55.2497C71.8892 55.3178 71.6383 55.441 71.4269 55.6193C71.2197 55.7967 71.055 56.0129 70.9327 56.2681C70.8147 56.5223 70.7398 56.7996 70.708 57.1002C70.6796 57.3956 70.7013 57.6969 70.7734 58.0042ZM76.7753 56.9507L76.7413 56.8054C76.6259 56.3129 76.5904 55.8393 76.6348 55.3847C76.6783 54.926 76.7983 54.5092 76.9947 54.1346C77.1902 53.7557 77.4592 53.435 77.8019 53.1726C78.1436 52.906 78.5523 52.7169 79.028 52.6054C79.5079 52.493 79.9602 52.4802 80.3847 52.5673C80.8125 52.6491 81.1981 52.8163 81.5416 53.0689C81.8882 53.3164 82.183 53.6359 82.4258 54.0276C82.6676 54.415 82.8462 54.855 82.9617 55.3476L82.9957 55.4929C83.1111 55.9854 83.1466 56.459 83.1021 56.9136C83.0577 57.3681 82.9356 57.7853 82.736 58.1652C82.5395 58.5399 82.2705 58.8606 81.9288 59.1272C81.5903 59.3886 81.1812 59.5755 80.7012 59.688C80.2213 59.8005 79.7695 59.8153 79.3459 59.7325C78.9214 59.6455 78.5358 59.4782 78.1891 59.2308C77.8457 58.9782 77.553 58.6582 77.3112 58.2707C77.0694 57.8833 76.8908 57.4433 76.7753 56.9507ZM77.9096 56.5316L77.9436 56.6769C78.0236 57.0179 78.139 57.3306 78.2901 57.615C78.4401 57.8951 78.6223 58.1322 78.8365 58.3263C79.055 58.5194 79.3021 58.6547 79.5778 58.7321C79.8526 58.8054 80.1521 58.8041 80.4762 58.7281C80.7962 58.6531 81.0609 58.5223 81.2703 58.3355C81.4829 58.1436 81.642 57.9131 81.7478 57.644C81.8535 57.375 81.9113 57.0816 81.9212 56.7639C81.9344 56.4411 81.901 56.1092 81.8211 55.7681L81.787 55.6229C81.7081 55.2861 81.5915 54.9781 81.4373 54.6989C81.2862 54.4145 81.1015 54.1758 80.883 53.9827C80.6678 53.7845 80.4223 53.6466 80.1465 53.5691C79.875 53.4906 79.5771 53.4894 79.253 53.5653C78.933 53.6403 78.6667 53.7738 78.4541 53.9657C78.2457 54.1567 78.087 54.3893 77.9781 54.6636C77.8724 54.9326 77.815 55.2281 77.8061 55.5499C77.7962 55.8676 77.8307 56.1948 77.9096 56.5316ZM86.5031 50.9868L86.7132 51.8835L83.0189 52.7494L82.8087 51.8526L86.5031 50.9868ZM83.6699 49.8987L84.8382 49.6249L86.4322 56.4262C86.4864 56.6578 86.5632 56.8241 86.6624 56.9252C86.7616 57.0263 86.8724 57.0825 86.995 57.0938C87.1175 57.105 87.2441 57.0954 87.3746 57.0648C87.4714 57.0421 87.5705 57.01 87.6718 56.9685C87.7763 56.9218 87.8545 56.8857 87.9062 56.8602L88.136 57.8123C88.0503 57.8635 87.9346 57.9195 87.789 57.9803C87.6485 58.0443 87.4731 58.1009 87.2626 58.1503C86.9763 58.2174 86.6998 58.2222 86.4332 58.1648C86.1666 58.1073 85.9307 57.9628 85.7254 57.7311C85.5233 57.4942 85.369 57.1484 85.2624 56.6937L83.6699 49.8987ZM88.2562 54.26L88.2221 54.1148C88.1067 53.6222 88.0712 53.1486 88.1157 52.6941C88.1591 52.2353 88.2791 51.8186 88.4755 51.4439C88.671 51.065 88.94 50.7443 89.2827 50.4819C89.6244 50.2153 90.0331 50.0263 90.5088 49.9148C90.9887 49.8023 91.441 49.7896 91.8656 49.8766C92.2933 49.9584 92.6789 50.1257 93.0224 50.3783C93.3691 50.6257 93.6638 50.9452 93.9066 51.3369C94.1484 51.7243 94.327 52.1644 94.4425 52.6569L94.4765 52.8022C94.5919 53.2948 94.6274 53.7683 94.583 54.2229C94.5385 54.6774 94.4164 55.0946 94.2168 55.4745C94.0203 55.8492 93.7513 56.1699 93.4096 56.4365C93.0712 56.6979 92.662 56.8848 92.182 56.9973C91.7021 57.1098 91.2503 57.1246 90.8267 57.0418C90.4022 56.9548 90.0166 56.7876 89.6699 56.5401C89.3265 56.2875 89.0338 55.9675 88.792 55.5801C88.5502 55.1926 88.3716 54.7526 88.2562 54.26ZM89.3904 53.8409L89.4244 53.9862C89.5044 54.3272 89.6198 54.6399 89.7709 54.9243C89.9209 55.2044 90.1031 55.4416 90.3173 55.6356C90.5358 55.8287 90.7829 55.964 91.0586 56.0415C91.3334 56.1148 91.6329 56.1134 91.9571 56.0374C92.277 55.9624 92.5417 55.8316 92.7511 55.6448C92.9637 55.4529 93.1228 55.2224 93.2286 54.9533C93.3343 54.6843 93.3921 54.3909 93.402 54.0733C93.4152 53.7504 93.3818 53.4185 93.3019 53.0775L93.2679 52.9322C93.1889 52.5954 93.0723 52.2874 92.9181 52.0082C92.767 51.7239 92.5823 51.4851 92.3638 51.2921C92.1486 51.0938 91.9031 50.9559 91.6273 50.8784C91.3558 50.7999 91.0579 50.7987 90.7338 50.8747C90.4138 50.9497 90.1475 51.0831 89.9349 51.2751C89.7265 51.466 89.5678 51.6986 89.4589 51.9729C89.3532 52.2419 89.2959 52.5374 89.2869 52.8593C89.277 53.1769 89.3115 53.5041 89.3904 53.8409ZM100.278 53.0547C100.239 52.8862 100.164 52.7394 100.055 52.614C99.949 52.4834 99.7684 52.3858 99.5135 52.3212C99.2617 52.2514 98.9002 52.2251 98.429 52.2423C98.0314 52.2511 97.6661 52.2368 97.3331 52.1993C97.0043 52.1609 96.7143 52.089 96.4631 51.9835C96.2161 51.8771 96.0111 51.7319 95.8481 51.5481C95.6851 51.3642 95.5705 51.1312 95.5044 50.8492C95.4413 50.5797 95.4405 50.3112 95.5021 50.0436C95.568 49.775 95.6887 49.5224 95.8642 49.2859C96.0439 49.0484 96.2772 48.8405 96.5641 48.6622C96.8509 48.4839 97.1859 48.3499 97.5691 48.2601C98.1164 48.1318 98.6064 48.1191 99.0391 48.222C99.4718 48.3249 99.8293 48.5143 100.112 48.7901C100.393 49.0617 100.579 49.3933 100.671 49.7848L99.5028 50.0586C99.4584 49.8692 99.3587 49.6994 99.2036 49.5492C99.0517 49.3938 98.8546 49.2823 98.6122 49.2148C98.3741 49.1462 98.1014 49.148 97.794 49.22C97.4698 49.296 97.2186 49.4082 97.0402 49.5566C96.865 49.6998 96.7488 49.858 96.6917 50.0313C96.6388 50.2036 96.6321 50.3739 96.6716 50.5423C96.7012 50.6686 96.7489 50.7773 96.8147 50.8685C96.8837 50.9545 96.9849 51.0263 97.1183 51.0838C97.2507 51.1372 97.4285 51.1755 97.6515 51.1987C97.8746 51.2219 98.1545 51.2318 98.4912 51.2284C99.0808 51.2235 99.5773 51.267 99.9808 51.359C100.384 51.4509 100.705 51.6046 100.942 51.82C101.179 52.0353 101.34 52.3262 101.426 52.6924C101.496 52.9913 101.497 53.2798 101.429 53.5578C101.365 53.8348 101.236 54.0914 101.043 54.3277C100.853 54.5588 100.608 54.7629 100.307 54.9399C100.01 55.1117 99.6612 55.2445 99.2612 55.3382C98.6592 55.4793 98.1246 55.4914 97.6575 55.3743C97.1904 55.2573 96.8095 55.0534 96.5149 54.7627C96.2202 54.472 96.0285 54.1372 95.9397 53.7583L97.1143 53.4831C97.2061 53.7991 97.3585 54.0321 97.5713 54.1821C97.7831 54.3278 98.0205 54.4121 98.2834 54.4349C98.5453 54.4534 98.7963 54.4346 99.0363 54.3783C99.3562 54.3033 99.6137 54.1986 99.8087 54.0641C100.008 53.9286 100.147 53.7738 100.226 53.5998C100.305 53.4258 100.323 53.2441 100.278 53.0547ZM102.301 44.2599L104.574 53.9598L103.406 54.2336L101.133 44.5337L102.301 44.2599ZM103.435 50.3496L102.944 50.4446C102.839 49.9763 102.807 49.5285 102.849 49.1012C102.89 48.6696 102.998 48.2779 103.173 47.926C103.348 47.574 103.586 47.2786 103.885 47.0397C104.188 46.7956 104.545 46.6252 104.958 46.5285C105.295 46.4495 105.608 46.4248 105.9 46.4543C106.19 46.4796 106.453 46.5689 106.689 46.7224C106.929 46.8749 107.136 47.0972 107.311 47.3892C107.485 47.6771 107.625 48.0463 107.731 48.4967L108.78 52.9741L107.605 53.2494L106.553 48.7594C106.469 48.4015 106.35 48.1276 106.194 47.9375C106.037 47.7433 105.847 47.6214 105.622 47.572C105.396 47.5183 105.136 47.526 104.841 47.595C104.551 47.6631 104.3 47.7863 104.088 47.9647C103.881 48.142 103.717 48.3583 103.594 48.6134C103.476 48.8676 103.401 49.145 103.37 49.4455C103.341 49.7409 103.363 50.0422 103.435 50.3496ZM109.437 49.296L109.403 49.1508C109.287 48.6582 109.252 48.1846 109.296 47.7301C109.34 47.2713 109.46 46.8546 109.656 46.4799C109.852 46.101 110.121 45.7803 110.463 45.5179C110.805 45.2513 111.214 45.0623 111.69 44.9508C112.17 44.8383 112.622 44.8256 113.046 44.9126C113.474 44.9944 113.86 45.1617 114.203 45.4143C114.55 45.6617 114.845 45.9812 115.087 46.3729C115.329 46.7604 115.508 47.2004 115.623 47.6929L115.657 47.8382C115.773 48.3308 115.808 48.8043 115.764 49.2589C115.719 49.7134 115.597 50.1307 115.398 50.5105C115.201 50.8852 114.932 51.2059 114.59 51.4725C114.252 51.7339 113.843 51.9209 113.363 52.0333C112.883 52.1458 112.431 52.1606 112.008 52.0778C111.583 51.9908 111.197 51.8236 110.851 51.5762C110.507 51.3236 110.215 51.0035 109.973 50.6161C109.731 50.2286 109.552 49.7886 109.437 49.296ZM110.571 48.877L110.605 49.0222C110.685 49.3632 110.801 49.6759 110.952 49.9603C111.102 50.2405 111.284 50.4776 111.498 50.6716C111.717 50.8647 111.964 51 112.239 51.0775C112.514 51.1508 112.814 51.1494 113.138 51.0734C113.458 50.9985 113.722 50.8676 113.932 50.6808C114.144 50.4889 114.304 50.2584 114.409 49.9893C114.515 49.7203 114.573 49.4269 114.583 49.1093C114.596 48.7864 114.563 48.4545 114.483 48.1135L114.449 47.9682C114.37 47.6314 114.253 47.3234 114.099 47.0443C113.948 46.7599 113.763 46.5212 113.545 46.3281C113.329 46.1298 113.084 45.9919 112.808 45.9144C112.537 45.836 112.239 45.8347 111.915 45.9107C111.595 45.9857 111.328 46.1191 111.116 46.3111C110.907 46.502 110.749 46.7346 110.64 47.0089C110.534 47.2779 110.477 47.5734 110.468 47.8953C110.458 48.2129 110.492 48.5402 110.571 48.877ZM117.78 45.0423L119.689 53.1888L118.515 53.4641L116.298 44.0041L117.371 43.7525L117.78 45.0423ZM122.863 46.0095L122.894 46.1421C123.011 46.6389 123.06 47.1137 123.042 47.5665C123.022 48.0152 122.936 48.4219 122.781 48.7867C122.631 49.1506 122.412 49.4573 122.124 49.7068C121.836 49.9564 121.48 50.131 121.055 50.2307C120.621 50.3323 120.221 50.3505 119.855 50.2853C119.489 50.2201 119.158 50.0778 118.862 49.8585C118.566 49.6391 118.304 49.3541 118.076 49.0035C117.851 48.652 117.657 48.2422 117.494 47.7741L117.329 47.0668C117.261 46.5497 117.249 46.075 117.294 45.6424C117.34 45.2099 117.443 44.826 117.604 44.4906C117.769 44.1501 117.998 43.8677 118.292 43.6433C118.584 43.4148 118.946 43.2502 119.375 43.1496C119.804 43.049 120.205 43.0439 120.577 43.1343C120.948 43.2206 121.284 43.3907 121.583 43.6448C121.882 43.8988 122.139 44.2272 122.353 44.63C122.571 45.0276 122.741 45.4874 122.863 46.0095ZM121.72 46.4174L121.689 46.2848C121.609 45.9437 121.498 45.6322 121.356 45.35C121.214 45.0637 121.04 44.8246 120.835 44.6328C120.634 44.4357 120.402 44.2991 120.14 44.2229C119.876 44.1424 119.585 44.1397 119.265 44.2147C118.97 44.2837 118.725 44.3944 118.53 44.5468C118.339 44.6982 118.188 44.8779 118.077 45.086C117.965 45.29 117.886 45.5127 117.84 45.7543C117.798 45.9908 117.781 46.2302 117.789 46.4726L118.172 48.1082C118.325 48.3832 118.508 48.6334 118.721 48.8589C118.933 49.0802 119.184 49.2412 119.474 49.342C119.763 49.4386 120.099 49.442 120.482 49.3522C120.798 49.2782 121.054 49.1493 121.251 48.9655C121.451 48.7765 121.598 48.549 121.691 48.2829C121.788 48.0158 121.837 47.7244 121.839 47.4087C121.839 47.0888 121.8 46.7584 121.72 46.4174Z" fill="white"/>
<path d="M172.944 35.8773C172.831 36.0583 172.652 36.1874 172.444 36.236C172.237 36.2846 172.019 36.2488 171.838 36.1365L169.647 34.5665L168.382 36.9458C168.326 37.0364 168.254 37.1151 168.168 37.1775C168.082 37.2399 167.985 37.2847 167.882 37.3093C167.779 37.334 167.672 37.3379 167.567 37.321C167.462 37.304 167.362 37.2665 167.272 37.2106C167.182 37.1547 167.104 37.0815 167.042 36.9953C166.98 36.909 166.936 36.8114 166.913 36.708C166.889 36.6047 166.886 36.4977 166.903 36.3931C166.921 36.2886 166.96 36.1886 167.016 36.0989L168.333 33.6244L166.053 31.9914C165.962 31.9362 165.884 31.8637 165.821 31.7779C165.759 31.6921 165.714 31.5949 165.689 31.4917C165.665 31.3886 165.661 31.2816 165.678 31.1769C165.695 31.0722 165.732 30.9719 165.788 30.8818C165.844 30.7917 165.917 30.7135 166.003 30.6518C166.09 30.5901 166.187 30.5461 166.291 30.5223C166.394 30.4986 166.501 30.4955 166.606 30.5133C166.71 30.5311 166.81 30.5694 166.9 30.626L169.091 32.1965L170.356 29.8159C170.411 29.7254 170.484 29.6466 170.57 29.5842C170.656 29.5218 170.753 29.477 170.856 29.4524C170.959 29.4278 171.066 29.4238 171.171 29.4408C171.275 29.4577 171.376 29.4952 171.466 29.5511C171.556 29.607 171.634 29.6802 171.696 29.7665C171.758 29.8527 171.802 29.9503 171.825 30.0537C171.849 30.157 171.852 30.2641 171.834 30.3686C171.817 30.4732 171.778 30.5732 171.722 30.6628L170.405 33.1386L172.684 34.7705C172.774 34.8261 172.852 34.8989 172.914 34.9846C172.975 35.0703 173.019 35.1674 173.043 35.2701C173.068 35.3729 173.071 35.4795 173.054 35.5836C173.037 35.6878 172.999 35.7876 172.944 35.8773Z" fill="white"/>
</g>
</g>
<g filter="url(#filter1_d_43_377)">
<g clip-path="url(#clip2_43_377)">
<rect width="193.721" height="44.2791" transform="translate(333.377 53.5556) rotate(-16.0489)" fill="#5B5B5B"/>
<path d="M395.322 54.4104L397.933 63.4862L396.73 63.8323L394.119 54.7565L395.322 54.4104ZM400.299 57.3995L400.583 58.3843L396.518 59.5535L396.235 58.5686L400.299 57.3995ZM399.742 53.1391L400.025 54.1239L395.344 55.4706L395.061 54.4857L399.742 53.1391ZM402.924 54.7477L404.865 61.4922L403.705 61.8258L401.765 55.0812L402.924 54.7477ZM401.163 53.3174C401.109 53.1303 401.12 52.9563 401.195 52.7952C401.274 52.6329 401.426 52.5195 401.651 52.4549C401.871 52.3916 402.058 52.4076 402.211 52.5029C402.369 52.5971 402.474 52.7376 402.528 52.9246C402.58 53.1033 402.564 53.2744 402.48 53.4379C402.4 53.5961 402.249 53.7068 402.029 53.7702C401.805 53.8347 401.616 53.8214 401.464 53.7302C401.315 53.6337 401.215 53.496 401.163 53.3174ZM409.145 52.9581L410.193 52.6569L412.092 59.2581C412.263 59.8523 412.288 60.394 412.168 60.883C412.047 61.3721 411.802 61.7868 411.432 62.1272C411.067 62.4706 410.605 62.723 410.044 62.8843C409.811 62.9513 409.526 62.9928 409.189 63.0088C408.857 63.0279 408.514 62.9937 408.16 62.9065C407.812 62.8222 407.494 62.6638 407.207 62.4315L407.614 61.5719C407.995 61.8314 408.358 61.9834 408.704 62.0279C409.054 62.0712 409.38 62.0492 409.684 61.962C410.049 61.8568 410.346 61.6974 410.572 61.4837C410.799 61.2701 410.946 61.0073 411.013 60.6953C411.087 60.3863 411.067 60.0365 410.955 59.6459L409.466 54.4722L409.145 52.9581ZM405.493 57.7411L405.455 57.6102C405.307 57.0949 405.233 56.6101 405.233 56.1557C405.236 55.696 405.308 55.2815 405.449 54.9124C405.594 54.5421 405.808 54.2287 406.09 53.9722C406.37 53.7115 406.716 53.522 407.127 53.4037C407.551 53.2818 407.943 53.2502 408.301 53.3089C408.663 53.3623 408.995 53.4986 409.296 53.7178C409.601 53.9317 409.874 54.2175 410.117 54.5752C410.359 54.933 410.577 55.354 410.77 55.8383L410.935 56.4118C411.032 56.9194 411.07 57.3898 411.051 57.8228C411.036 58.2547 410.956 58.6421 410.812 58.9851C410.672 59.3268 410.463 59.6186 410.186 59.8602C409.908 60.0977 409.555 60.278 409.127 60.4011C408.724 60.5171 408.333 60.5371 407.956 60.4612C407.583 60.384 407.236 60.2252 406.915 59.9846C406.594 59.744 406.311 59.4339 406.067 59.0542C405.825 58.6692 405.634 58.2315 405.493 57.7411ZM406.609 57.2785L406.646 57.4094C406.743 57.746 406.867 58.0522 407.019 58.3282C407.174 58.6029 407.355 58.8321 407.561 59.0159C407.771 59.1984 408.006 59.3219 408.268 59.3861C408.528 59.4462 408.814 59.4315 409.126 59.3418C409.508 59.2318 409.801 59.0599 410.003 58.8262C410.206 58.5924 410.342 58.3216 410.411 58.0138C410.484 57.7048 410.517 57.3825 410.511 57.0469L410.078 55.5447C409.967 55.3292 409.833 55.1293 409.676 54.9449C409.523 54.7551 409.347 54.5986 409.15 54.4754C408.955 54.3469 408.736 54.2638 408.491 54.2262C408.246 54.1887 407.978 54.2117 407.688 54.2954C407.372 54.3863 407.119 54.5311 406.928 54.7298C406.741 54.9232 406.608 55.155 406.528 55.4254C406.451 55.6905 406.42 55.9828 406.436 56.3023C406.454 56.6165 406.512 56.9419 406.609 57.2785ZM413.477 53.1632L415.031 58.5676L413.872 58.9011L411.932 52.1566L413.029 51.841L413.477 53.1632ZM413.751 55.0079L413.209 55.1434C413.081 54.6809 413.019 54.2377 413.023 53.8136C413.025 53.3853 413.099 52.9929 413.244 52.6362C413.389 52.2796 413.609 51.9733 413.904 51.7174C414.199 51.4573 414.57 51.2627 415.019 51.1336C415.335 51.0427 415.639 51.0047 415.931 51.0196C416.222 51.0304 416.493 51.1033 416.743 51.2382C416.993 51.3732 417.216 51.5748 417.41 51.8429C417.604 52.111 417.762 52.457 417.884 52.8809L419.177 57.3752L418.023 57.7069L416.747 53.2687C416.645 52.9155 416.503 52.6502 416.322 52.473C416.145 52.2945 415.934 52.1886 415.691 52.1551C415.446 52.1176 415.178 52.1406 414.887 52.2243C414.546 52.3223 414.279 52.4645 414.085 52.6507C413.891 52.837 413.756 53.0558 413.68 53.3072C413.604 53.5586 413.574 53.8304 413.591 54.1226C413.61 54.4094 413.664 54.7045 413.751 55.0079ZM417.938 53.1151L417.233 53.5743C417.131 53.2033 417.089 52.8306 417.107 52.4564C417.129 52.081 417.215 51.728 417.362 51.3975C417.515 51.0658 417.735 50.7752 418.023 50.5258C418.31 50.2723 418.667 50.084 419.095 49.9608C419.457 49.8568 419.791 49.8126 420.097 49.8281C420.407 49.8423 420.686 49.9217 420.935 50.0662C421.186 50.2053 421.406 50.4143 421.594 50.6931C421.782 50.972 421.937 51.3233 422.059 51.7472L423.334 56.1791L422.175 56.5126L420.896 52.0682C420.788 51.6901 420.643 51.4144 420.463 51.2413C420.285 51.0629 420.077 50.9632 419.837 50.9422C419.6 50.9159 419.334 50.9452 419.039 51.0301C418.785 51.103 418.573 51.2112 418.403 51.3546C418.233 51.4981 418.103 51.6658 418.015 51.8578C417.925 52.0457 417.872 52.2474 417.858 52.4631C417.848 52.6775 417.874 52.8948 417.938 53.1151ZM428.725 53.3798L427.726 49.9078C427.649 49.6419 427.529 49.4268 427.365 49.2625C427.204 49.093 427.001 48.9846 426.758 48.9375C426.515 48.8905 426.238 48.9118 425.926 49.0014C425.636 49.0851 425.394 49.2085 425.203 49.3716C425.015 49.5335 424.883 49.7134 424.805 49.9113C424.731 50.108 424.721 50.2999 424.774 50.4869L423.621 50.8187C423.552 50.5776 423.546 50.3208 423.602 50.048C423.659 49.7753 423.776 49.5099 423.953 49.2518C424.134 48.9883 424.372 48.7533 424.668 48.5466C424.967 48.3346 425.321 48.1701 425.728 48.0529C426.218 47.9118 426.674 47.8706 427.096 47.9293C427.522 47.9867 427.889 48.1532 428.198 48.4289C428.51 48.6992 428.738 49.0857 428.883 49.5886L429.786 52.7302C429.851 52.9546 429.938 53.1882 430.049 53.4309C430.163 53.6724 430.286 53.8733 430.418 54.0334L430.447 54.1331L429.243 54.4792C429.147 54.363 429.051 54.1995 428.954 53.9888C428.856 53.774 428.78 53.571 428.725 53.3798ZM428.08 50.3865L428.325 51.1933L427.16 51.5286C426.831 51.623 426.546 51.7343 426.304 51.8625C426.061 51.9864 425.867 52.1255 425.722 52.2796C425.577 52.4337 425.482 52.6028 425.436 52.787C425.389 52.9671 425.395 53.161 425.455 53.3688C425.516 53.5807 425.619 53.7602 425.765 53.9073C425.911 54.0543 426.094 54.1523 426.315 54.2012C426.539 54.2447 426.793 54.2259 427.075 54.1446C427.428 54.0429 427.719 53.8785 427.946 53.6512C428.173 53.4239 428.334 53.1795 428.43 52.918C428.53 52.6552 428.557 52.4203 428.511 52.2131L429.163 52.6262C429.184 52.8091 429.16 53.025 429.093 53.274C429.025 53.523 428.911 53.7763 428.751 54.0337C428.594 54.2859 428.386 54.5188 428.128 54.7325C427.873 54.9408 427.563 55.0976 427.197 55.2028C426.74 55.3343 426.314 55.3603 425.917 55.2808C425.525 55.2002 425.19 55.0377 424.913 54.7935C424.639 54.5439 424.448 54.2322 424.34 53.8582C424.236 53.4966 424.216 53.1584 424.278 52.8435C424.339 52.5244 424.476 52.2352 424.69 51.9758C424.902 51.7123 425.181 51.479 425.528 51.2758C425.874 51.0727 426.278 50.9047 426.739 50.772L428.08 50.3865Z" fill="white"/>
<path d="M505.384 30.4897C505.281 30.6761 505.108 30.814 504.903 30.8729C504.698 30.9318 504.478 30.9069 504.292 30.8038L502.026 29.345L500.881 31.7844C500.83 31.8777 500.761 31.9599 500.679 32.0265C500.596 32.0931 500.502 32.1427 500.4 32.1724C500.298 32.2022 500.191 32.2115 500.086 32.1998C499.98 32.1881 499.878 32.1556 499.786 32.1043C499.693 32.0529 499.611 31.9837 499.545 31.9007C499.479 31.8176 499.43 31.7223 499.402 31.6202C499.373 31.5182 499.364 31.4115 499.377 31.3062C499.389 31.2009 499.423 31.0991 499.475 31.0067L500.666 28.4696L498.308 26.9523C498.214 26.9017 498.132 26.8332 498.066 26.7507C497.999 26.6681 497.949 26.5732 497.92 26.4714C497.89 26.3696 497.881 26.263 497.892 26.1576C497.904 26.0522 497.937 25.9501 497.988 25.8573C498.039 25.7645 498.108 25.6828 498.191 25.6169C498.275 25.551 498.37 25.5022 498.472 25.4732C498.574 25.4443 498.681 25.4359 498.786 25.4485C498.891 25.461 498.993 25.4943 499.085 25.5464L501.353 27.0057L502.497 24.5649C502.548 24.4717 502.616 24.3895 502.699 24.3229C502.781 24.2563 502.876 24.2067 502.978 24.1769C503.08 24.1472 503.187 24.1379 503.292 24.1496C503.397 24.1613 503.499 24.1938 503.592 24.2451C503.685 24.2964 503.767 24.3656 503.833 24.4487C503.899 24.5318 503.947 24.6271 503.976 24.7291C504.005 24.8312 504.014 24.9379 504.001 25.0432C503.989 25.1485 503.955 25.2503 503.903 25.3427L502.712 27.8811L505.07 29.3972C505.162 29.4483 505.243 29.5171 505.309 29.5996C505.375 29.6822 505.424 29.7769 505.453 29.8783C505.482 29.9798 505.491 30.086 505.479 30.1909C505.467 30.2958 505.435 30.3974 505.384 30.4897Z" fill="white"/>
<g clip-path="url(#clip3_43_377)">
<path d="M373.52 50.7396L359.482 54.7779C356.062 55.7618 354.086 59.3323 355.07 62.7526L359.109 76.7905C360.093 80.2109 363.663 82.186 367.083 81.2021L381.121 77.1638C384.542 76.1799 386.517 72.6095 385.533 69.1891L381.495 55.1512C380.511 51.7308 376.94 49.7557 373.52 50.7396Z" fill="#F4F2ED"/>
<mask id="mask0_43_377" style="mask-type:luminance" maskUnits="userSpaceOnUse" x="360" y="53" width="21" height="26">
<path d="M360.417 57.6383L374.182 53.6784L380.121 74.3223L366.355 78.2822L360.417 57.6383Z" fill="white"/>
</mask>
<g mask="url(#mask0_43_377)">
<path d="M369.797 77.292C371.697 76.7457 372.795 74.7609 372.248 72.8617L371.258 69.4209L367.818 70.4107C365.919 70.9571 364.821 72.942 365.367 74.8412C365.913 76.7405 367.898 77.8384 369.797 77.292Z" fill="#0ACF83"/>
<path d="M363.387 67.9598C362.841 66.0606 363.939 64.0758 365.838 63.5294L369.279 62.5397L371.258 69.4209L367.818 70.4107C365.919 70.957 363.934 69.8591 363.387 67.9598Z" fill="#A259FF"/>
<path d="M361.408 61.0785C360.862 59.1792 361.96 57.1944 363.859 56.6481L367.299 55.6583L369.279 62.5396L365.838 63.5294C363.939 64.0758 361.954 62.9777 361.408 61.0785Z" fill="#F24E1E"/>
<path d="M367.299 55.6584L370.74 54.6686C372.639 54.1223 374.624 55.2202 375.17 57.1194C375.717 59.0187 374.619 61.0036 372.719 61.55L369.279 62.5397L367.299 55.6584Z" fill="#FF7262"/>
<path d="M377.15 64.0007C377.696 65.9 376.598 67.8848 374.699 68.4312C372.8 68.9775 370.815 67.8795 370.269 65.9803C369.722 64.0811 370.82 62.0963 372.719 61.5499C374.619 61.0036 376.603 62.1015 377.15 64.0007Z" fill="#1ABCFE"/>
</g>
</g>
</g>
</g>
<g filter="url(#filter2_d_43_377)">
<g clip-path="url(#clip4_43_377)">
<rect width="193.721" height="44.2791" transform="translate(161.323 41.4266) rotate(8.4013)" fill="#5B5B5B"/>
<path d="M217.45 67.8574L216.07 77.1999L214.832 77.017L216.211 67.6745L217.45 67.8574ZM220.888 67.8406L219.432 77.6965L218.239 77.5202L219.694 67.6644L220.888 67.8406ZM224.083 68.3126L222.628 78.1684L221.434 77.9922L222.89 68.1363L224.083 68.3126ZM229.018 77.4731L229.807 72.1345L231 72.3108L229.975 79.2535L228.839 79.0858L229.018 77.4731ZM229.459 76.0433L229.955 76.1034C229.887 76.5654 229.774 76.9859 229.618 77.3649C229.466 77.7403 229.262 78.0555 229.006 78.3105C228.75 78.5656 228.436 78.7488 228.066 78.8601C227.696 78.9672 227.263 78.9841 226.767 78.9109C226.429 78.8609 226.126 78.766 225.858 78.6259C225.595 78.4864 225.377 78.2992 225.207 78.0641C225.036 77.8291 224.919 77.5387 224.857 77.1929C224.798 76.8477 224.803 76.4441 224.872 75.9821L225.533 71.5034L226.72 71.6787L226.057 76.1703C226.011 76.4826 226.007 76.7464 226.045 76.9619C226.088 77.1737 226.16 77.3483 226.263 77.4857C226.37 77.6196 226.494 77.7211 226.637 77.7902C226.784 77.86 226.939 77.9069 227.102 77.9309C227.606 78.0055 228.021 77.9683 228.344 77.8194C228.668 77.6662 228.919 77.4344 229.096 77.124C229.278 76.8099 229.399 76.4497 229.459 76.0433ZM236.099 78.2762C236.124 78.1051 236.109 77.9412 236.053 77.7843C236.003 77.6239 235.871 77.4667 235.657 77.3128C235.449 77.1553 235.123 76.9978 234.678 76.8404C234.305 76.7022 233.971 76.5545 233.675 76.3971C233.383 76.2404 233.14 76.0668 232.945 75.8763C232.755 75.6865 232.618 75.4761 232.534 75.2451C232.45 75.0142 232.429 74.7554 232.471 74.4688C232.512 74.195 232.61 73.9451 232.766 73.7189C232.926 73.4934 233.131 73.303 233.381 73.1476C233.636 72.9929 233.929 72.8854 234.261 72.8252C234.594 72.765 234.955 72.7637 235.344 72.8212C235.9 72.9033 236.36 73.0718 236.725 73.3267C237.089 73.5816 237.352 73.8892 237.513 74.2496C237.674 74.6056 237.726 74.9826 237.667 75.3804L236.48 75.2051C236.509 75.0126 236.478 74.818 236.389 74.6213C236.305 74.4209 236.163 74.2447 235.962 74.0927C235.766 73.9414 235.512 73.8426 235.2 73.7965C234.87 73.7478 234.595 73.7597 234.375 73.832C234.159 73.9007 233.993 74.0051 233.876 74.1452C233.764 74.2859 233.695 74.4419 233.67 74.613C233.651 74.7413 233.655 74.86 233.683 74.9689C233.715 75.0743 233.783 75.1783 233.886 75.2809C233.989 75.3792 234.14 75.4802 234.339 75.5839C234.538 75.6876 234.795 75.7998 235.109 75.9205C235.659 76.1329 236.105 76.3561 236.446 76.5901C236.787 76.824 237.029 77.0848 237.17 77.3723C237.311 77.6597 237.354 77.9896 237.299 78.3617C237.254 78.6654 237.149 78.934 236.983 79.1674C236.822 79.4015 236.608 79.5928 236.341 79.7414C236.079 79.8863 235.776 79.9858 235.432 80.0398C235.092 80.0902 234.719 80.0853 234.313 80.0253C233.701 79.935 233.199 79.7494 232.808 79.4687C232.417 79.188 232.138 78.8583 231.971 78.4796C231.804 78.1009 231.749 77.719 231.806 77.334L232.999 77.5103C232.968 77.8379 233.024 78.1106 233.167 78.3284C233.31 78.5419 233.5 78.7076 233.736 78.8255C233.973 78.9392 234.213 79.014 234.457 79.05C234.782 79.098 235.06 79.0954 235.291 79.042C235.526 78.9893 235.712 78.8966 235.85 78.764C235.987 78.6313 236.07 78.4687 236.099 78.2762ZM242.505 74.0099L242.37 74.9211L238.617 74.3667L238.751 73.4556L242.505 74.0099ZM240.271 71.9556L241.458 72.1309L240.437 79.0416C240.403 79.2769 240.413 79.4598 240.468 79.5903C240.523 79.7208 240.605 79.8139 240.715 79.8694C240.825 79.925 240.946 79.9625 241.079 79.9821C241.177 79.9967 241.281 80.0033 241.391 80.0019C241.505 79.997 241.591 79.9922 241.648 79.9876L241.512 80.9574C241.413 80.9735 241.285 80.983 241.127 80.9859C240.973 80.9937 240.789 80.9818 240.575 80.9502C240.284 80.9073 240.025 80.81 239.799 80.6585C239.572 80.507 239.406 80.2858 239.3 79.9948C239.199 79.7002 239.183 79.3219 239.251 78.8599L240.271 71.9556ZM244.923 75.4817L244.059 81.3336L242.872 81.1583L243.897 74.2156L245.052 74.3862L244.923 75.4817ZM247.259 74.6727L247.09 75.7754C246.994 75.7395 246.902 75.7128 246.813 75.6952C246.729 75.674 246.631 75.6552 246.52 75.6388C246.246 75.5984 245.998 75.6054 245.776 75.66C245.553 75.7146 245.358 75.8082 245.19 75.9407C245.022 76.0732 244.879 76.2401 244.762 76.4414C244.65 76.639 244.562 76.8621 244.499 77.1107L244.137 77.2539C244.199 76.8347 244.298 76.4471 244.433 76.0912C244.573 75.736 244.752 75.4302 244.969 75.1737C245.187 74.913 245.442 74.7234 245.735 74.605C246.033 74.4828 246.37 74.4496 246.746 74.5052C246.832 74.5178 246.928 74.543 247.037 74.5808C247.145 74.6144 247.219 74.645 247.259 74.6727ZM251.338 81.1956L251.865 77.6216C251.906 77.3478 251.885 77.1022 251.804 76.8847C251.727 76.6636 251.588 76.4813 251.386 76.3379C251.185 76.1944 250.923 76.099 250.602 76.0516C250.303 76.0074 250.032 76.0199 249.79 76.0891C249.553 76.1589 249.358 76.2677 249.205 76.4156C249.056 76.5641 248.967 76.7346 248.939 76.9271L247.752 76.7518C247.788 76.5037 247.889 76.2672 248.053 76.0423C248.218 75.8175 248.434 75.6243 248.703 75.4629C248.976 75.2979 249.291 75.1826 249.646 75.117C250.005 75.0477 250.395 75.0441 250.814 75.106C251.319 75.1805 251.751 75.3318 252.111 75.5598C252.475 75.7884 252.74 76.092 252.907 76.4707C253.079 76.8458 253.127 77.2922 253.051 77.8098L252.573 81.0437C252.539 81.2747 252.522 81.5235 252.522 81.7902C252.526 82.0574 252.555 82.2912 252.608 82.4914L252.593 82.594L251.355 82.4111C251.315 82.2654 251.295 82.0767 251.294 81.8449C251.294 81.6088 251.309 81.3924 251.338 81.1956ZM251.989 78.2038L251.879 79.0398L250.679 78.8626C250.341 78.8127 250.035 78.796 249.762 78.8124C249.489 78.8246 249.255 78.8708 249.06 78.9513C248.864 79.0317 248.707 79.1462 248.589 79.2948C248.472 79.4392 248.397 79.6184 248.366 79.8322C248.333 80.0504 248.353 80.2566 248.425 80.4508C248.497 80.645 248.623 80.8101 248.804 80.9461C248.99 81.0784 249.229 81.1661 249.519 81.2091C249.883 81.2628 250.215 81.2331 250.516 81.1202C250.817 81.0073 251.065 80.8516 251.26 80.6532C251.46 80.4554 251.582 80.2526 251.626 80.0449L252.048 80.6908C251.992 80.8661 251.881 81.053 251.716 81.2516C251.551 81.4501 251.343 81.6335 251.091 81.8017C250.843 81.9663 250.558 82.0924 250.235 82.1802C249.917 82.2643 249.569 82.2786 249.193 82.223C248.722 82.1535 248.323 82.0005 247.995 81.7641C247.671 81.5284 247.434 81.242 247.283 80.9049C247.136 80.5642 247.092 80.2014 247.148 79.8164C247.203 79.4442 247.324 79.1277 247.512 78.8669C247.699 78.6017 247.944 78.3953 248.246 78.2475C248.548 78.0954 248.899 77.9986 249.298 77.9571C249.698 77.9156 250.135 77.9299 250.61 78L251.989 78.2038ZM258.149 76.3204L258.014 77.2315L254.26 76.6771L254.395 75.766L258.149 76.3204ZM255.915 74.266L257.102 74.4414L256.081 81.352C256.046 81.5873 256.057 81.7702 256.112 81.9007C256.167 82.0312 256.249 82.1243 256.359 82.1798C256.469 82.2354 256.59 82.273 256.722 82.2925C256.821 82.3071 256.925 82.3137 257.034 82.3124C257.149 82.3074 257.235 82.3026 257.292 82.298L257.155 83.2678C257.057 83.2839 256.929 83.2934 256.771 83.2963C256.617 83.3041 256.433 83.2922 256.219 83.2607C255.928 83.2177 255.669 83.1205 255.442 82.9689C255.216 82.8174 255.049 82.5962 254.944 82.3052C254.843 82.0106 254.827 81.6323 254.895 81.1703L255.915 74.266ZM258.574 80.009L258.596 79.8614C258.67 79.3609 258.811 78.9075 259.02 78.5012C259.229 78.0907 259.494 77.7473 259.815 77.4712C260.136 77.1908 260.504 76.9917 260.919 76.8738C261.335 76.7516 261.784 76.7262 262.268 76.7976C262.755 76.8696 263.181 77.0242 263.543 77.2614C263.911 77.4949 264.208 77.7922 264.434 78.1535C264.666 78.5111 264.822 78.9167 264.904 79.3702C264.986 79.8195 264.99 80.2944 264.916 80.7949L264.895 80.9424C264.821 81.4429 264.679 81.8963 264.471 82.3026C264.262 82.7089 263.995 83.0519 263.67 83.3317C263.349 83.6078 262.981 83.807 262.565 83.9291C262.154 84.0477 261.705 84.0709 261.217 83.9989C260.73 83.9269 260.304 83.7744 259.941 83.5415C259.578 83.3044 259.281 83.007 259.05 82.6494C258.823 82.2881 258.669 81.8829 258.587 81.4336C258.505 80.9843 258.5 80.5095 258.574 80.009ZM259.783 80.0367L259.761 80.1843C259.71 80.5308 259.702 80.864 259.738 81.184C259.775 81.4998 259.857 81.7873 259.985 82.0466C260.117 82.3065 260.297 82.5232 260.525 82.6967C260.753 82.866 261.032 82.9749 261.361 83.0236C261.687 83.0716 261.981 83.0473 262.244 82.9507C262.513 82.8504 262.745 82.6947 262.943 82.4834C263.14 82.2722 263.302 82.0207 263.428 81.729C263.559 81.4336 263.65 81.1127 263.701 80.7662L263.723 80.6186C263.773 80.2764 263.778 79.9471 263.738 79.6307C263.702 79.3107 263.618 79.0208 263.486 78.7609C263.359 78.4973 263.181 78.2788 262.953 78.1052C262.73 77.9323 262.453 77.8216 262.124 77.7729C261.799 77.7249 261.502 77.751 261.234 77.8512C260.97 77.9521 260.736 78.11 260.534 78.3249C260.337 78.5362 260.175 78.7898 260.048 79.0858C259.922 79.3775 259.834 79.6945 259.783 80.0367ZM267.933 78.8801L267.069 84.732L265.882 84.5567L266.907 77.6139L268.062 77.7845L267.933 78.8801ZM270.269 78.0711L270.099 79.1738C270.004 79.1378 269.912 79.1111 269.823 79.0936C269.739 79.0724 269.641 79.0536 269.53 79.0371C269.256 78.9967 269.008 79.0038 268.786 79.0584C268.563 79.113 268.368 79.2065 268.2 79.3391C268.032 79.4716 267.889 79.6385 267.772 79.8397C267.66 80.0373 267.572 80.2604 267.509 80.509L267.147 80.6522C267.209 80.233 267.308 79.8455 267.443 79.4896C267.583 79.1343 267.762 78.8285 267.979 78.5721C268.196 78.3114 268.452 78.1218 268.745 78.0033C269.042 77.8812 269.38 77.8479 269.756 77.9035C269.842 77.9161 269.938 77.9414 270.046 77.9792C270.155 78.0127 270.229 78.0433 270.269 78.0711Z" fill="white"/>
<path d="M327.452 91.6233C327.281 91.7503 327.067 91.8042 326.856 91.7731C326.645 91.742 326.455 91.6284 326.328 91.4573L324.869 89.1913L322.817 90.9381C322.732 91.002 322.636 91.0485 322.533 91.075C322.43 91.1014 322.324 91.1073 322.219 91.0922C322.114 91.0772 322.013 91.0415 321.922 90.9872C321.83 90.9329 321.751 90.8611 321.688 90.776C321.625 90.6909 321.579 90.594 321.553 90.4911C321.528 90.3882 321.523 90.2813 321.538 90.1764C321.554 90.0716 321.591 89.9709 321.646 89.8802C321.701 89.7896 321.773 89.7107 321.859 89.6482L323.994 87.8317L322.475 85.4743C322.411 85.3897 322.364 85.2933 322.338 85.1906C322.311 85.0879 322.306 84.981 322.321 84.876C322.336 84.771 322.371 84.6701 322.426 84.579C322.48 84.4879 322.552 84.4084 322.637 84.3452C322.722 84.2819 322.819 84.2362 322.922 84.2106C323.025 84.185 323.132 84.18 323.236 84.1959C323.341 84.2118 323.442 84.2483 323.533 84.3033C323.623 84.3584 323.702 84.4308 323.765 84.5164L325.225 86.7832L327.277 85.0351C327.361 84.9712 327.458 84.9247 327.561 84.8982C327.663 84.8718 327.77 84.8659 327.875 84.881C327.98 84.896 328.081 84.9317 328.172 84.986C328.263 85.0403 328.343 85.1121 328.406 85.1972C328.469 85.2824 328.515 85.3792 328.541 85.4821C328.566 85.585 328.571 85.6919 328.555 85.7968C328.539 85.9016 328.503 86.0023 328.448 86.093C328.393 86.1836 328.32 86.2625 328.235 86.325L326.1 88.1428L327.618 90.4988C327.681 90.5835 327.727 90.6798 327.753 90.7822C327.778 90.8846 327.784 90.991 327.768 91.0955C327.753 91.1999 327.717 91.3003 327.663 91.3909C327.609 91.4814 327.537 91.5604 327.452 91.6233Z" fill="white"/>
<g clip-path="url(#clip5_43_377)">
<path d="M200.844 56.0718L182.675 53.3883C180.181 53.02 177.861 54.7432 177.492 57.2372L174.909 74.7264C174.541 77.2204 176.264 79.5408 178.758 79.9091L196.928 82.5926C199.421 82.9609 201.742 81.2377 202.11 78.7437L204.693 61.2545C205.062 58.7605 203.338 56.4401 200.844 56.0718Z" fill="#330000"/>
<path d="M188.99 70.5838L184.775 69.9612L183.524 72.4987C183.505 72.5455 183.47 72.5844 183.426 72.6084C183.381 72.6325 183.33 72.6404 183.28 72.6306L181.146 72.3153C181.024 72.2973 180.991 72.2241 181.047 72.0956L186.249 62.1242C186.302 62.0202 186.357 61.9009 186.414 61.7664C186.498 61.5299 186.559 61.2862 186.596 61.0382C186.596 61.0204 186.6 61.003 186.608 60.9872C186.616 60.9714 186.628 60.9576 186.642 60.947C186.656 60.9365 186.673 60.9294 186.69 60.9263C186.708 60.9232 186.726 60.9242 186.743 60.9292L189.644 61.3577C189.729 61.3703 189.773 61.4079 189.776 61.4707L192.194 73.7605C192.212 73.8876 192.167 73.9431 192.057 73.9269L189.685 73.5765C189.644 73.575 189.604 73.5585 189.574 73.53C189.544 73.5016 189.525 73.4631 189.522 73.4218L188.99 70.5838ZM185.771 67.7591L188.654 68.185L188.633 68.0432L188.599 67.8186L188.574 67.6608L188.534 67.4121L188.448 66.8884L188.373 66.4242L188.179 65.2154C188.131 64.9149 188.086 64.6137 188.046 64.3121L188.013 64.0674L187.976 63.7783L187.921 63.3304L187.911 63.246L187.893 63.2433C187.737 63.6678 187.561 64.085 187.367 64.4936L186.968 65.3244L186.748 65.7836L186.526 66.2484C186.486 66.3324 186.446 66.4154 186.406 66.4974L186.288 66.7402L186.17 66.9772L186.055 67.2081L185.94 67.433C185.902 67.507 185.865 67.5799 185.827 67.6519L185.771 67.7591ZM196.11 64.289C195.922 64.269 195.741 64.2097 195.579 64.115C195.416 64.0203 195.275 63.8923 195.165 63.7394C195.057 63.5807 194.98 63.4022 194.941 63.214C194.902 63.0257 194.9 62.8316 194.936 62.6427C194.957 62.4535 195.018 62.271 195.114 62.107C195.211 61.9429 195.341 61.8011 195.496 61.6907C195.795 61.478 196.164 61.3888 196.528 61.4417L196.566 61.4479C197.004 61.5126 197.329 61.694 197.54 61.9925C197.645 62.147 197.72 62.3208 197.758 62.5041C197.797 62.6873 197.799 62.8764 197.764 63.0604C197.743 63.2524 197.685 63.4382 197.591 63.607C197.497 63.7757 197.37 63.9239 197.218 64.0427C197.066 64.1542 196.893 64.234 196.709 64.2775C196.525 64.3211 196.335 64.3274 196.148 64.2962L196.11 64.289ZM193.398 73.9383L194.686 65.2162C194.702 65.1067 194.759 65.0591 194.856 65.0735L197.101 65.405C197.198 65.4193 197.239 65.4812 197.223 65.5908L195.934 74.3129C195.916 74.4347 195.859 74.4884 195.761 74.4739L193.535 74.1451C193.431 74.1298 193.385 74.0671 193.396 73.9571L193.398 73.9383Z" fill="#FF9A00"/>
</g>
</g>
</g>
<defs>
<filter id="filter0_d_43_377" x="0" y="6.13198" width="205.356" height="93.9561" filterUnits="userSpaceOnUse" color-interpolation-filters="sRGB">
<feFlood flood-opacity="0" result="BackgroundImageFix"/>
<feColorMatrix in="SourceAlpha" type="matrix" values="0 0 0 0 0 0 0 0 0 0 0 0 0 0 0 0 0 0 127 0" result="hardAlpha"/>
<feOffset dx="3.87442" dy="3.87442"/>
<feGaussianBlur stdDeviation="1.38372"/>
<feComposite in2="hardAlpha" operator="out"/>
<feColorMatrix type="matrix" values="0 0 0 0 0 0 0 0 0 0 0 0 0 0 0 0 0 0 0.5 0"/>
<feBlend mode="normal" in2="BackgroundImageFix" result="effect1_dropShadow_43_377"/>
<feBlend mode="normal" in="SourceGraphic" in2="effect1_dropShadow_43_377" result="shape"/>
</filter>
<filter id="filter1_d_43_377" x="333.377" y="1.52588e-05" width="205.054" height="102.751" filterUnits="userSpaceOnUse" color-interpolation-filters="sRGB">
<feFlood flood-opacity="0" result="BackgroundImageFix"/>
<feColorMatrix in="SourceAlpha" type="matrix" values="0 0 0 0 0 0 0 0 0 0 0 0 0 0 0 0 0 0 127 0" result="hardAlpha"/>
<feOffset dx="3.87442" dy="3.87442"/>
<feGaussianBlur stdDeviation="1.38372"/>
<feComposite in2="hardAlpha" operator="out"/>
<feColorMatrix type="matrix" values="0 0 0 0 0 0 0 0 0 0 0 0 0 0 0 0 0 0 0.5 0"/>
<feBlend mode="normal" in2="BackgroundImageFix" result="effect1_dropShadow_43_377"/>
<feBlend mode="normal" in="SourceGraphic" in2="effect1_dropShadow_43_377" result="shape"/>
</filter>
<filter id="filter2_d_43_377" x="154.854" y="41.4266" width="204.753" height="78.7494" filterUnits="userSpaceOnUse" color-interpolation-filters="sRGB">
<feFlood flood-opacity="0" result="BackgroundImageFix"/>
<feColorMatrix in="SourceAlpha" type="matrix" values="0 0 0 0 0 0 0 0 0 0 0 0 0 0 0 0 0 0 127 0" result="hardAlpha"/>
<feOffset dx="3.87442" dy="3.87442"/>
<feGaussianBlur stdDeviation="1.38372"/>
<feComposite in2="hardAlpha" operator="out"/>
<feColorMatrix type="matrix" values="0 0 0 0 0 0 0 0 0 0 0 0 0 0 0 0 0 0 0.5 0"/>
<feBlend mode="normal" in2="BackgroundImageFix" result="effect1_dropShadow_43_377"/>
<feBlend mode="normal" in="SourceGraphic" in2="effect1_dropShadow_43_377" result="shape"/>
</filter>
<clipPath id="clip0_43_377">
<rect width="193.721" height="44.2791" fill="white" transform="translate(0 50.3353) rotate(-13.19)"/>
</clipPath>
<clipPath id="clip1_43_377">
<rect width="27.4959" height="27.4959" fill="white" transform="translate(19.7375 54.3285) rotate(-13.19)"/>
</clipPath>
<clipPath id="clip2_43_377">
<rect width="193.721" height="44.2791" fill="white" transform="translate(333.377 53.5556) rotate(-16.0489)"/>
</clipPath>
<clipPath id="clip3_43_377">
<rect width="27.4958" height="27.4958" fill="white" transform="translate(353.289 56.5595) rotate(-16.0489)"/>
</clipPath>
<clipPath id="clip4_43_377">
<rect width="193.721" height="44.2791" fill="white" transform="translate(161.323 41.4266) rotate(8.4013)"/>
</clipPath>
<clipPath id="clip5_43_377">
<rect width="27.4959" height="26.8515" fill="white" transform="translate(178.159 52.7214) rotate(8.4013)"/>
</clipPath>
</defs>
</svg>
